<svg width="130" height="130" xmlns="http://www.w3.org/2000/svg">

 <g>
  <title>background</title>
  <rect fill="none" id="canvas_background" height="132" width="132" y="-1" x="-1"/>
 </g>
 <g>
  <title>Layer 1</title>
  <g id="uuid-7de104e2-42ec-4731-9f20-9d2d0edff5b5">
   <g stroke="null" id="svg_8">
    <path stroke="null" id="svg_1" fill=" #f7c600" d="m127.780005,50.805c1,4.54 1.59,9.31 1.59,14.19c0,35.57 -28.8,64.38 -64.38,64.38c-4.36,0 -8.54,-0.41 -12.66,-1.24l0,-8.66c4.06,0.94 8.3,1.41 12.66,1.41c30.86,0 55.9,-25.03 55.9,-55.89c0,-4.89 -0.65,-9.66 -1.83,-14.19l8.72,0z"/>
    <path stroke="null" id="svg_2" fill-rule=" evenodd" d="m65.000005,0.625c27.39,0 50.83,17.14 60.14,41.29l-9.19,0c-8.78,-19.38 -28.27,-32.81 -50.95,-32.81c-30.86,0 -55.89,25.03 -55.89,55.9c0,23.27 14.19,43.17 34.34,51.6l0,9.07c-24.97,-8.89 -42.82,-32.69 -42.82,-60.67c0,-35.52 28.8,-64.38 64.38,-64.38l-0.01,0z"/>
    <path stroke="null" id="svg_3" fill=" #f7c600" d="m95.800005,99.985l-32.16,0c-0.82,0 -1.71,-0.12 -2.65,-0.29s-1.88,-0.47 -2.83,-0.94c-0.94,-0.41 -1.83,-0.94 -2.65,-1.59c-0.88,-0.65 -1.59,-1.41 -2.24,-2.36c-0.65,-0.94 -1.18,-2 -1.53,-3.24c-0.41,-1.24 -0.59,-2.59 -0.59,-4.12l0,-24.15c0,-0.82 0.12,-1.71 0.29,-2.65s0.47,-1.88 0.88,-2.83c0.41,-0.94 0.94,-1.83 1.59,-2.65s1.47,-1.59 2.41,-2.24c0.94,-0.65 2,-1.18 3.18,-1.53c1.24,-0.41 2.59,-0.59 4.12,-0.59l59.72,0l0,8.89l-59.72,0c-1.18,0 -2.06,0.29 -2.65,0.94c-0.59,0.59 -0.94,1.53 -0.94,2.77l0,24.09c0,1.12 0.29,2 0.94,2.65s1.53,0.94 2.65,0.94l32.16,0l0,8.89l0.02,0.01z"/>
    <path stroke="null" id="svg_4" fill-rule=" evenodd" d="m82.730005,32.965l-35.63,0c-0.82,0 -1.71,0.12 -2.65,0.29s-1.88,0.47 -2.83,0.88c-0.94,0.41 -1.83,0.94 -2.65,1.59c-0.82,0.65 -1.59,1.47 -2.24,2.41c-0.65,0.94 -1.18,2 -1.53,3.18c-0.41,1.18 -0.59,2.59 -0.59,4.12l0,73.64l8.89,0l0,-73.63c0,-1.18 0.29,-2.06 0.94,-2.65c0.59,-0.59 1.53,-0.94 2.77,-0.94l35.57,0l0,-8.89l-0.06,0l0.01,0z"/>
   </g>
  </g>
 </g>
</svg>