<?xml version="1.0" encoding="UTF-8"?>
<svg id="uuid-7f5b121e-a85a-4574-a416-821f5c0dbf6d" data-name="Layer 1" xmlns="http://www.w3.org/2000/svg" width="515" height="143.33" viewBox="0 0 515 143.33">
  <g id="uuid-7de104e2-42ec-4731-9f20-9d2d0edff5b5" data-name="Front">
    <path d="M146,56.18c1,4.54,1.59,9.31,1.59,14.19,0,35.57-28.8,64.38-64.38,64.38-4.36,0-8.54-.41-12.66-1.24v-8.66c4.06,.94,8.3,1.41,12.66,1.41,30.86,0,55.9-25.03,55.9-55.89,0-4.89-.65-9.66-1.83-14.19h8.72Z" style="fill: #f7c600; fill-rule: evenodd;"/>
    <path d="M83.22,6c27.39,0,50.83,17.14,60.14,41.29h-9.19c-8.78-19.38-28.27-32.81-50.95-32.81-30.86,0-55.89,25.03-55.89,55.9,0,23.27,14.19,43.17,34.34,51.6v9.07c-24.97-8.89-42.82-32.69-42.82-60.67,0-35.52,28.8-64.38,64.38-64.38Z" style="fill-rule: evenodd;"/>
    <path d="M114.02,105.36h-32.16c-.82,0-1.71-.12-2.65-.29s-1.88-.47-2.83-.94c-.94-.41-1.83-.94-2.65-1.59-.88-.65-1.59-1.41-2.24-2.36-.65-.94-1.18-2-1.53-3.24-.41-1.24-.59-2.59-.59-4.12v-24.15c0-.82,.12-1.71,.29-2.65s.47-1.88,.88-2.83c.41-.94,.94-1.83,1.59-2.65s1.47-1.59,2.41-2.24c.94-.65,2-1.18,3.18-1.53,1.24-.41,2.59-.59,4.12-.59h59.72v8.89h-59.72c-1.18,0-2.06,.29-2.65,.94-.59,.59-.94,1.53-.94,2.77v24.09c0,1.12,.29,2,.94,2.65s1.53,.94,2.65,.94h32.16v8.89Z" style="fill: #f7c600; fill-rule: evenodd;"/>
    <path d="M100.95,38.34h-35.63c-.82,0-1.71,.12-2.65,.29s-1.88,.47-2.83,.88c-.94,.41-1.83,.94-2.65,1.59-.82,.65-1.59,1.47-2.24,2.41-.65,.94-1.18,2-1.53,3.18-.41,1.18-.59,2.59-.59,4.12V124.45h8.89V50.82c0-1.18,.29-2.06,.94-2.65,.59-.59,1.53-.94,2.77-.94h35.57v-8.89h-.06Z" style="fill-rule: evenodd;"/>
    <path d="M169.03,127.86v-1.59h-3.59c-1.24,0-2.24-.18-2.77-1-.24-.35-.47-1-.47-2.59s.29-2.36,.59-2.83c.59-.88,1.59-1,2.77-1h3.3v-1.59h-4.24c-.77,0-2.41,.12-3.48,1.35-.88,1.06-1.06,2.59-1.06,4.12,0,1.18,.06,2.77,1.06,3.89,1,1.12,2.36,1.24,3.36,1.24h4.54Zm12.66,0v-1.59h-5.65c-.29,0-.59,0-.71-.12-.12-.06-.18-.24-.18-.41v-2.47h6.3v-1.59h-6.3v-2.18c0-.18,0-.35,.18-.53,.18-.12,.35-.18,.53-.18h5.71v-1.59h-6.83c-.41,0-.94,.06-1.3,.41-.24,.24-.35,.71-.35,1.12v7.54c0,.41,.06,.88,.41,1.24s.77,.35,1.24,.35h6.95Zm9.31,0v-9.01h4.18v-1.59h-10.31v1.59h4.12v9.01h2Zm7.72-10.66v9.01c0,.41,.06,.82,.35,1.18,.12,.12,.41,.41,.94,.41h5.65c1.3,0,1.88-.65,2.12-.94,.06-.12,.47-.71,.47-2.24,0-.77-.12-1.59-.41-2.12-.53-.94-1.59-1-2.06-1h-5.07v-4.36h-2v.06Zm2,5.95h4.01c.35,0,.71,0,1,.18,.41,.29,.41,.82,.41,1.3,0,.41,0,1-.35,1.3s-1,.29-1.18,.29h-3.24c-.24,0-.47,0-.59-.18-.12-.12-.12-.41-.12-.47v-2.41h.06Zm30.16-3.53c.06-.12,.18-.35,.24-.35s.18,.06,.18,.29l-.06,8.25h2v-9.36c0-.94-.71-1.41-1.71-1.41-.77,0-1.41,.18-1.88,1.35l-2.77,7.07c-.12,.24-.18,.41-.29,.41s-.18-.18-.29-.41l-2.77-7.07c-.47-1.18-1.12-1.35-1.88-1.35-.29,0-1.71,0-1.71,1.41v9.36h2l-.06-8.25c0-.06,0-.29,.18-.29,.12,0,.24,.24,.24,.35l2.71,7.07c.35,1,.71,1.3,1.53,1.3,.88,0,1.18-.29,1.53-1.3l2.83-7.07h0Zm5.65,8.25h2.12l1.06-2.71h5.12l1.12,2.71h2.12l-4.01-9.54c-.35-.88-.82-1.18-1.77-1.18s-1.35,.29-1.77,1.18l-4.01,9.54h0Zm5.42-8.48c.06-.18,.18-.41,.29-.41s.24,.29,.29,.41l1.71,4.3h-4.06l1.77-4.3h0Zm11.37,8.48v-8.36c0-.18,0-.41,.12-.53,.12-.18,.47-.18,.71-.18h5.71v-1.59h-7.13c-.47,0-.82,.18-1.06,.41-.35,.35-.35,.71-.35,1.12v9.07h2v.06Zm7.19,0h2.12l1.06-2.71h5.12l1.12,2.71h2.12l-4.01-9.54c-.35-.88-.82-1.18-1.77-1.18s-1.35,.29-1.77,1.18l-4.01,9.54h0Zm5.48-8.48c.06-.18,.18-.41,.29-.41s.24,.29,.29,.41l1.71,4.3h-4.06l1.77-4.3h0Zm9.13,8.48h5.48c.71,0,1.65-.06,2.3-.41,.88-.59,.94-1.65,.94-2.41,0-.88-.12-1.41-.29-1.71-.29-.47-.82-.77-1.41-.77v-.12c.35-.06,.65-.24,.88-.47,.59-.53,.59-1.18,.59-1.88,0-.77-.06-1.59-.65-2.24-.65-.65-1.53-.65-2.24-.65h-5.6v1.59h5.12c.29,0,.65,0,.94,.24,.35,.29,.35,.82,.35,1.18,0,.29,0,.82-.24,1.12-.24,.24-.71,.35-1.41,.35h-4.59v1.59h4.83c.82,0,1.12,.24,1.24,.29,.35,.29,.35,.88,.35,1.18,0,.41-.06,1-.53,1.3-.29,.18-1.06,.18-1.24,.18h-4.83v1.65h0Zm23.21,0v-8.83c0-.53-.06-1.88-1.65-1.88-.71,0-1.18,.24-1.77,1.18l-4.3,7.01c-.12,.18-.18,.35-.29,.35-.18,0-.18-.24-.18-.47l.06-7.89h-2v8.89c0,.59,.06,1.83,1.59,1.83,1.06,0,1.41-.53,1.71-1l4.36-7.07c.18-.24,.29-.47,.41-.47s.18,.18,.18,.35l-.06,8.07h1.94v-.06Zm14.19-10.66h-2v4.36h-5.54v-4.36h-2v10.6h2v-4.65h5.54v4.65h2v-10.6h0Zm9.78-.12c-1.3,0-3.06,0-4.24,1.12s-1.24,2.89-1.24,4.3c0,1.18,0,3.12,1.24,4.3,1.18,1.12,2.94,1.12,4.24,1.12,1.18,0,3.12,0,4.24-1.12,1.18-1.12,1.18-3.18,1.18-4.3,0-1.41-.12-3.24-1.18-4.3-1.18-1.12-3-1.12-4.24-1.12h0Zm-3.42,5.42c0-1.65,.24-2.41,.71-2.94,.71-.88,1.77-.88,2.71-.88,.88,0,2.06,.06,2.71,.88,.41,.53,.65,1.35,.65,2.94s-.29,2.41-.65,2.94c-.71,.88-1.83,.88-2.71,.88-1.18,0-2.06-.12-2.71-.88-.47-.53-.71-1.41-.71-2.94h0Zm14.67-5.3c-.35,0-.82,.06-1.12,.41-.24,.29-.35,.71-.35,1.12v7.6c0,.59,.24,.94,.35,1.06,.41,.47,.88,.41,1.41,.41h5.07c.65,0,1.35,0,1.94-.71s.59-1.53,.59-2.24c0-.59,0-1.35-.47-1.88-.24-.29-.65-.53-1.18-.59v-.06c.41-.06,.71-.18,1-.53,.47-.59,.47-1.18,.47-1.71,0-.71-.06-1.65-.65-2.3-.59-.59-1.35-.65-1.94-.65h-5.12v.06Zm.53,4.48v-2.3c0-.12,0-.35,.12-.47,.12-.12,.29-.12,.47-.12h3.3c.35,0,.71,0,1,.29,.35,.29,.35,.82,.35,1.12,0,.71-.18,1-.24,1.06-.29,.35-.71,.35-1.12,.35h-3.89v.06Zm0,1.59h4.06c.65,0,.94,.29,1.06,.41,.18,.29,.24,.77,.24,1.06,0,.35-.06,.82-.29,1.06-.29,.35-.82,.35-1.18,.35h-3.18c-.18,0-.47,0-.65-.18-.06-.12-.12-.29-.12-.65v-2.06h.06Zm27.8,4.59v-1.59h-3.59c-1.24,0-2.24-.18-2.77-1-.24-.35-.47-1-.47-2.59s.29-2.36,.59-2.83c.59-.88,1.59-1,2.77-1h3.3v-1.59h-4.24c-.77,0-2.41,.12-3.48,1.35-.88,1.06-1.06,2.59-1.06,4.12,0,1.18,.06,2.77,1.06,3.89s2.36,1.24,3.36,1.24h4.54Zm11.07-9.07c.12,0,.35,0,.47,.12s.12,.35,.12,.53v8.36h2v-9.19c0-.35-.06-.77-.35-1.06-.35-.35-.77-.35-1.18-.35h-6.3c-.47,0-.82,0-1.18,.35s-.41,.71-.41,1.06v9.19h2v-8.36c0-.18,.06-.41,.12-.53,.12-.18,.29-.12,.47-.12h4.24Zm15.73,9.07v-1.59h-5.65c-.29,0-.59,0-.71-.12-.12-.06-.18-.24-.18-.41v-2.47h6.3v-1.59h-6.3v-2.18c0-.18,0-.35,.18-.53,.18-.12,.35-.18,.53-.18h5.71v-1.59h-6.83c-.41,0-.94,.06-1.3,.41-.24,.24-.35,.71-.35,1.12v7.54c0,.41,.06,.88,.41,1.24,.35,.35,.77,.35,1.24,.35h6.95Zm15.14,0v-1.59h-1.47v-9.01h-2v9.01h-4.77c-.18,0-.47,0-.59-.18s-.12-.47-.12-.65v-8.19h-1.94v9.07c0,.41,.06,.88,.47,1.24,.35,.29,.82,.29,1.24,.29h9.19Zm8.72-10.78c-1.3,0-3.06,0-4.24,1.12s-1.24,2.89-1.24,4.3c0,1.18,0,3.12,1.24,4.3,1.18,1.12,2.94,1.12,4.24,1.12,1.18,0,3.12,0,4.24-1.12,1.18-1.12,1.18-3.18,1.18-4.3,0-1.41-.12-3.24-1.18-4.3-1.12-1.12-3-1.12-4.24-1.12h0Zm-3.36,5.42c0-1.65,.24-2.41,.71-2.94,.71-.88,1.77-.88,2.71-.88,.88,0,2.06,.06,2.71,.88,.41,.53,.65,1.35,.65,2.94s-.29,2.41-.65,2.94c-.71,.88-1.83,.88-2.71,.88-1.18,0-2.06-.12-2.71-.88-.47-.53-.71-1.41-.71-2.94h0Zm12.37,3.71h-.88v1.59h12.31v-1.59h-.88l-3.59-8.01c-.35-.77-.77-1.12-1.71-1.12-1.06,0-1.41,.53-1.71,1.12l-3.53,8.01h0Zm5.01-6.83c.06-.12,.12-.35,.24-.35s.18,.24,.24,.35l2.94,6.89h-6.42l3-6.89h0Zm18.55,8.48v-1.59h-5.65c-.29,0-.59,0-.71-.12-.12-.06-.18-.24-.18-.41v-2.47h6.3v-1.59h-6.3v-2.18c0-.18,0-.35,.18-.53,.18-.12,.35-.18,.53-.18h5.71v-1.59h-6.83c-.41,0-.94,.06-1.3,.41-.24,.24-.35,.71-.35,1.12v7.54c0,.41,.06,.88,.41,1.24,.35,.35,.77,.35,1.24,.35h6.95Zm2.94,0h2.53l3.59-4.06c.65-.71,.71-1.24,.71-1.41,0-.47-.35-.94-.53-1.24l-3.36-3.95h-2.41l3.89,4.36c.24,.24,.41,.47,.41,.77,0,.35-.35,.77-.59,1l-4.24,4.54h0Zm16.85,0l-4.3-4.48c-.24-.24-.59-.65-.59-1,0-.29,.24-.59,.41-.77l3.89-4.36h-2.41l-3.36,3.95c-.24,.29-.53,.71-.53,1.24,0,.59,.41,1.12,.71,1.41l3.59,4.06h2.59v-.06Zm-9.42,0h2v-10.6h-2v10.6h0Zm12.66-1.65h-.88v1.59h12.31v-1.59h-.88l-3.59-8.01c-.35-.77-.77-1.12-1.71-1.12-1.06,0-1.41,.53-1.71,1.12l-3.53,8.01h0Zm5.01-6.83c.06-.12,.12-.35,.24-.35s.18,.24,.24,.35l2.94,6.89h-6.42l3-6.89h0Zm10.01-2.18v9.01c0,.41,.06,.82,.35,1.18,.12,.12,.41,.41,.94,.41h5.65c1.3,0,1.88-.65,2.12-.94,.06-.12,.47-.71,.47-2.24,0-.77-.12-1.59-.41-2.12-.53-.94-1.59-1-2.06-1h-5.07v-4.36h-2v.06Zm2,5.95h4.01c.35,0,.71,0,1,.18,.41,.29,.41,.82,.41,1.3,0,.41,0,1-.35,1.3s-1,.29-1.18,.29h-3.24c-.24,0-.47,0-.59-.18-.12-.12-.12-.41-.12-.47v-2.41h.06Zm10.66,4.71v-10.6h-2v10.6h2Z" style="fill-rule: evenodd;"/>
    <path d="M168.45,108.37v-39.23c0-.94,0-2,.41-2.59,.65-.77,2.3-.71,3.3-.71h26.98v-7.48h-33.45c-2.24,0-3.95,.94-4.95,1.94-1.65,1.65-1.71,3.42-1.71,5.3v42.82h9.42v-.06Zm21.5,0l19.38-45.88c1-2.3,2.36-4.71,7.66-4.71s6.66,2.41,7.66,4.71l19.32,45.88h-10.01l-15.78-39.99c-.24-.65-.41-1.41-1.12-1.41-.77,0-1,.88-1.24,1.41l-15.78,39.99h-10.07Zm54.13,0h9.95l5.07-12.66h24.09l5.12,12.66h9.95l-18.85-45c-1.77-4.24-3.95-5.65-8.25-5.65s-6.42,1.41-8.25,5.65l-18.85,45h0Zm25.68-39.76c.29-.71,.77-2.06,1.41-2.06s1.12,1.35,1.41,2.06l8.13,20.38h-19.26l8.3-20.38h0Zm38.34-10.31c-1.59,0-3.77,.29-5.3,2.06-1.06,1.3-1.59,3.3-1.59,5.12v35.75c0,2.89,1.24,4.48,1.71,5.07,2,2.3,4.3,2,6.77,2h23.97c3.06,0,6.3,0,9.13-3.24,2.89-3.24,2.89-7.24,2.89-10.48,0-2.77,0-6.36-2.36-8.95-1.24-1.35-3.12-2.41-5.48-2.65v-.29c1.88-.12,3.3-.88,4.71-2.59,2.24-2.65,2.36-5.42,2.36-8.13,0-3.3-.35-7.89-3.12-10.72-2.65-2.71-6.36-3-9.07-3h-24.62v.06Zm2.59,21.03v-10.72c0-.59,.06-1.59,.65-2.24,.59-.65,1.35-.59,2.12-.59h15.43c1.59,0,3.3,0,4.65,1.3,1.59,1.47,1.65,4.01,1.65,5.36,0,3.42-.71,4.65-1.06,5.07-1.3,1.77-3.3,1.77-5.12,1.77h-18.32v.06Zm0,7.48h19.14c3.06,0,4.48,1.3,5.07,2.06,.94,1.35,1.06,3.65,1.06,5.07,0,1.59-.24,3.77-1.3,5.07-1.41,1.71-4.01,1.77-5.48,1.77h-14.84c-.71,0-2.3,.06-3.06-.77-.35-.41-.59-1.3-.59-2.94v-10.25h0Z" style="fill-rule: evenodd;"/>
    <path d="M394.38,108.37v-7.48h-16.96c-5.95,0-10.48-.88-13.08-4.77-1-1.59-2.36-4.65-2.36-12.13s1.3-11.25,2.77-13.43c2.89-4.3,7.6-4.65,13.13-4.65h15.67v-7.48h-20.08c-3.59,0-11.37,.41-16.37,6.3-4.24,4.95-4.89,12.31-4.89,19.44,0,5.48,.35,13.13,5.07,18.44,4.65,5.24,11.13,5.89,15.96,5.89h21.14v-.12Zm54.89,0v-41.64c0-2.47-.12-9.01-7.66-9.01-3.42,0-5.65,1.12-8.36,5.6l-20.14,33.04c-.41,.71-.77,1.59-1.35,1.59-.94,0-.88-1.12-.88-2.3l.24-37.34h-9.42v42.05c0,2.89,.12,8.6,7.36,8.6,5.07,0,6.6-2.47,7.95-4.71l20.61-33.22c.71-1.12,1.3-2.3,1.88-2.3,.65,0,.71,.88,.71,1.65l-.29,38.05h9.36v-.06Zm8.66,0h25.86c3.42,0,7.89-.24,10.72-2,4.24-2.65,4.48-7.77,4.48-11.37,0-4.06-.47-6.6-1.41-8.13-1.3-2.3-3.89-3.59-6.6-3.71v-.29c1.59-.35,3.06-1.12,4.24-2.24,2.65-2.47,2.89-5.6,2.89-8.78,0-3.71-.29-7.6-3.06-10.43-3.12-3.12-7.24-3.06-10.48-3.06h-26.33v7.48h24.15c1.47,0,3.12,.06,4.36,1.06,1.71,1.41,1.65,3.77,1.65,5.65,0,1.47,.06,3.89-1.24,5.24-1.06,1.12-3.36,1.59-6.6,1.59h-21.67v7.48h22.97c3.95,0,5.3,1,5.71,1.35,1.71,1.47,1.77,4.06,1.77,5.65,0,2-.12,4.77-2.41,6.07-1.47,.88-5.07,.94-5.95,.94h-23.03v7.48h0Z" style="fill: #f7c600; fill-rule: evenodd;"/>
  </g>
</svg>