<?xml version="1.0" encoding="utf-8"?>
<!-- Generator: Adobe Illustrator 24.0.0, SVG Export Plug-In . SVG Version: 6.00 Build 0)  -->
<svg version="1.1" xmlns="http://www.w3.org/2000/svg" xmlns:xlink="http://www.w3.org/1999/xlink" x="0px" y="0px"
	 viewBox="0 0 841.9 595.3" style="enable-background:new 0 0 841.9 595.3;" xml:space="preserve">
<style type="text/css">
	.st0{fill-rule:evenodd;clip-rule:evenodd;fill:#F7C600;}
	.st1{fill-rule:evenodd;clip-rule:evenodd;}
	.st2{fill-rule:evenodd;clip-rule:evenodd;fill:#FFFFFF;}
</style>
<g id="_x31_">
</g>
<g id="_x31__1_">
</g>
<g id="_x31__2_">
</g>
<g id="_x31__3_">
</g>
<g id="_x31__4_">
</g>
<g id="_x31__5_">
</g>
<g id="_x31__6_">
	<path class="st0" d="M701.2,233.1c4.5,20.1,6.9,40.9,6.9,62.4c0,156.4-126.8,283.2-283.2,283.2c-19.1,0-37.7-1.9-55.7-5.5v-38
		c17.9,4.1,36.5,6.3,55.7,6.3c135.9,0,246-110.1,246-246c0-21.6-2.8-42.5-8-62.4H701.2z"/>
	<path class="st1" d="M424.9,12.3c120.6,0,223.6,75.4,264.4,181.6H649C610.3,108.8,524.5,49.5,424.9,49.5
		c-135.9,0-246,110.1-246,246c0,102.2,62.4,189.9,151.1,227v39.9c-109.7-39-188.3-143.8-188.3-266.9
		C141.7,139.1,268.5,12.3,424.9,12.3z"/>
	<path class="st0" d="M560.5,449.4H418.9c-3.6,0-7.5-0.4-11.7-1.3c-4.2-0.8-8.3-2.2-12.4-4c-4.1-1.8-8-4.1-11.7-7
		c-3.8-2.8-7-6.3-9.9-10.4c-2.9-4.1-5.1-8.8-6.8-14.2c-1.8-5.4-2.6-11.5-2.6-18.2V288.1c0-3.6,0.4-7.5,1.3-11.7
		c0.8-4.2,2.2-8.3,4-12.4c1.8-4.1,4.2-8,7.1-11.7c2.9-3.7,6.4-7,10.5-9.9c4.1-2.9,8.8-5.1,14.1-6.8c5.3-1.7,11.3-2.6,18.1-2.6h262.8
		v39.2H418.9c-5.1,0-9,1.4-11.7,4.1c-2.7,2.7-4.1,6.7-4.1,12.1v106c0,5,1.4,8.9,4.2,11.7c2.8,2.7,6.6,4.1,11.7,4.1h141.6V449.4z"/>
	<path class="st1" d="M503,154.5H346.1c-3.6,0-7.5,0.4-11.7,1.3c-4.2,0.8-8.3,2.2-12.4,4s-8,4.2-11.7,7.1c-3.7,2.9-7,6.4-9.9,10.5
		c-2.9,4.1-5.1,8.8-6.8,14.1c-1.7,5.3-2.6,11.3-2.6,18.1v323.8h39.2V209.5c0-5.2,1.4-9,4.1-11.7c2.7-2.7,6.7-4.1,12-4.1H503V154.5z"
		/>
</g>
<g id="_x31__7_">
</g>
<g id="_x31__8_">
</g>
</svg>
